<svg xmlns="http://www.w3.org/2000/svg" width="20" height="20" viewBox="0 0 20 20" fill="none">
  <path
    d="M17.7251 7.65006C17.4834 7.26673 17.2251 6.9084 16.9584 6.57506C16.6501 6.1834 16.0667 6.15006 15.7167 6.50006L13.2167 9.00006C13.4001 9.55007 13.4334 10.1834 13.2667 10.8417C12.9751 12.0167 12.0251 12.9667 10.8501 13.2584C10.1917 13.4251 9.55842 13.3917 9.00842 13.2084C9.00842 13.2084 7.81675 14.4001 6.95842 15.2584C6.54175 15.6751 6.67508 16.4084 7.23342 16.6251C8.12508 16.9667 9.05008 17.1417 10.0001 17.1417C11.4834 17.1417 12.9251 16.7084 14.2417 15.9001C15.5834 15.0667 16.7917 13.8417 17.7667 12.2834C18.5584 11.0251 18.5167 8.9084 17.7251 7.65006Z"
    fill="#B0B6BF" />
  <path
    d="M11.6834 8.31673L8.31675 11.6834C7.89175 11.2501 7.61675 10.6501 7.61675 10.0001C7.61675 8.69173 8.68341 7.61673 10.0001 7.61673C10.6501 7.61673 11.2501 7.89173 11.6834 8.31673Z"
    fill="#B0B6BF" />
  <path
    d="M15.2084 4.79173L12.3834 7.61673C11.7751 7.00007 10.9334 6.6334 10.0001 6.6334C8.13342 6.6334 6.63341 8.14173 6.63341 10.0001C6.63341 10.9334 7.00842 11.7751 7.61675 12.3834L4.80008 15.2084H4.79175C3.86675 14.4584 3.01675 13.5001 2.29175 12.3667C1.45841 11.0584 1.45841 8.9334 2.29175 7.62506C3.25841 6.1084 4.44175 4.91673 5.75841 4.10006C7.07508 3.30007 8.51675 2.8584 10.0001 2.8584C11.8584 2.8584 13.6584 3.54173 15.2084 4.79173Z"
    fill="#B0B6BF" />
  <path
    d="M12.3834 10.0001C12.3834 11.3084 11.3167 12.3834 10.0001 12.3834C9.95008 12.3834 9.90841 12.3834 9.85841 12.3667L12.3667 9.8584C12.3834 9.9084 12.3834 9.95006 12.3834 10.0001Z"
    fill="#B0B6BF" />
  <path
    d="M18.1417 1.8584C17.8917 1.6084 17.4834 1.6084 17.2334 1.8584L1.85841 17.2417C1.60841 17.4917 1.60841 17.9001 1.85841 18.1501C1.98341 18.2667 2.14175 18.3334 2.30841 18.3334C2.47508 18.3334 2.63341 18.2667 2.75841 18.1417L18.1417 2.7584C18.4001 2.5084 18.4001 2.1084 18.1417 1.8584Z"
    fill="#B0B6BF" />
</svg>
