<svg xmlns="http://www.w3.org/2000/svg" width="20" height="20" viewBox="0 0 20 20" fill="none">
  <path fill-rule="evenodd" clip-rule="evenodd"
    d="M14.6023 6.16318V7.44096C16.0376 7.88897 17.0833 9.18828 17.0833 10.7402V14.8543C17.0833 16.7755 15.4905 18.3332 13.5268 18.3332H6.474C4.50946 18.3332 2.91666 16.7755 2.91666 14.8543V10.7402C2.91666 9.18828 3.96329 7.88897 5.39774 7.44096V6.16318C5.4062 3.67883 7.46389 1.6665 9.9873 1.6665C12.5446 1.6665 14.6023 3.67883 14.6023 6.16318ZM10.0045 3.11507C11.7235 3.11507 13.1207 4.48146 13.1207 6.16254V7.26062H6.87988V6.14598C6.88835 4.47318 8.28554 3.11507 10.0045 3.11507ZM9.79798 14.7035C9.59876 14.7035 9.43883 14.6418 9.31818 14.5184C9.20033 14.3921 9.14141 14.2322 9.14141 14.0386V14.0049C9.14141 13.8506 9.16807 13.7131 9.22138 13.5924C9.27749 13.469 9.35746 13.3567 9.46128 13.2557C9.5679 13.1547 9.69837 13.0593 9.85269 12.9695C10.0435 12.8601 10.1908 12.7619 10.2946 12.6749C10.3984 12.5879 10.47 12.4996 10.5093 12.4098C10.5513 12.3172 10.5724 12.2106 10.5724 12.0899C10.5724 11.9721 10.5429 11.8696 10.484 11.7827C10.4279 11.6929 10.3507 11.6227 10.2525 11.5722C10.1543 11.5217 10.0393 11.4965 9.9074 11.4965C9.73625 11.4965 9.59175 11.5372 9.4739 11.6185C9.35886 11.6971 9.26908 11.8149 9.20454 11.9721C9.14281 12.1095 9.05583 12.212 8.9436 12.2793C8.83137 12.3466 8.7023 12.3803 8.55639 12.3803C8.35999 12.3803 8.20426 12.3256 8.08922 12.2162C7.97418 12.1039 7.91666 11.9552 7.91666 11.77C7.91666 11.6803 7.92789 11.5933 7.95033 11.5091C7.97278 11.4221 8.00645 11.3393 8.05134 11.2608C8.19164 10.9942 8.42873 10.7796 8.76262 10.6168C9.09932 10.4513 9.50477 10.3685 9.97895 10.3685C10.4026 10.3685 10.7716 10.4387 11.0859 10.579C11.4001 10.7164 11.6442 10.9115 11.8182 11.164C11.9949 11.4165 12.0833 11.7125 12.0833 12.052C12.0833 12.3635 12.009 12.6314 11.8603 12.8559C11.7116 13.0776 11.4829 13.2782 11.1742 13.4578C10.9834 13.5672 10.8375 13.6626 10.7365 13.7439C10.6355 13.8225 10.5626 13.9011 10.5177 13.9796C10.4728 14.0582 10.4363 14.1494 10.4082 14.2532C10.3634 14.3991 10.2904 14.5113 10.1894 14.5899C10.0912 14.6657 9.96072 14.7035 9.79798 14.7035ZM9.81902 16.6312C9.60017 16.6312 9.41358 16.5596 9.25926 16.4165C9.10774 16.2706 9.03198 16.0938 9.03198 15.8862C9.03198 15.6758 9.10774 15.499 9.25926 15.3559C9.41358 15.2128 9.60017 15.1413 9.81902 15.1413C10.0379 15.1413 10.2231 15.2128 10.3746 15.3559C10.5289 15.499 10.6061 15.6758 10.6061 15.8862C10.6061 16.0938 10.5289 16.2706 10.3746 16.4165C10.2231 16.5596 10.0379 16.6312 9.81902 16.6312Z"
    fill="#CCCCCC" />
</svg>
