<svg width="24" height="24" viewBox="0 0 24 24" fill="none" xmlns="http://www.w3.org/2000/svg">
<path fill-rule="evenodd" clip-rule="evenodd" d="M12 21.9986C17.5221 21.9986 21.9986 17.5221 21.9986 12C21.9986 6.47797 17.5221 2.00146 12 2.00146C6.47797 2.00146 2.00146 6.47797 2.00146 12C2.00146 17.5221 6.47797 21.9986 12 21.9986ZM6.7236 8.19639H8.26686C8.02093 7.78757 7.88422 7.27587 7.91896 6.63809C7.9639 5.81372 8.30207 5.34199 8.698 5.09406C9.11349 4.83387 9.66113 4.78945 10.2455 5.00445C11.4822 5.45944 11.9812 6.43916 11.9812 6.43916C12.4681 5.7495 13.1181 5.22478 13.7168 5.00445C14.3012 4.78945 14.8489 4.83387 15.2644 5.09406C15.6603 5.34199 15.9985 5.81372 16.0434 6.63809C16.0781 7.27587 15.9414 7.78757 15.6955 8.19639H17.2757C17.6107 8.19639 17.9321 8.32949 18.169 8.56642C18.4059 8.80336 18.5391 9.12471 18.5391 9.45977V11.7915C18.5391 12.1266 18.4059 12.4479 18.169 12.6849C18.0781 12.7758 17.9747 12.8514 17.863 12.91V17.0929C17.863 18.2179 16.951 19.1299 15.826 19.1299H12.0636C12.0425 19.1316 12.0212 19.1325 11.9996 19.1325C11.978 19.1325 11.9568 19.1316 11.9357 19.1299H8.17322C7.04822 19.1299 6.1362 18.2179 6.1362 17.0929V12.91C6.02445 12.8514 5.92113 12.7758 5.83025 12.6849C5.59331 12.4479 5.46017 12.1266 5.46017 11.7915V9.45977C5.46017 9.12471 5.59331 8.80336 5.83025 8.56642C6.06714 8.32949 6.38851 8.19639 6.7236 8.19639ZM11.2345 17.5997V13.0549H7.66638V17.0929C7.66638 17.3728 7.89328 17.5997 8.17322 17.5997H11.2345ZM16.3329 13.0549H12.7647V17.5997H15.826C16.1059 17.5997 16.3329 17.3728 16.3329 17.0929V13.0549ZM12.7647 11.5247V9.72658H17.0089V11.5247H12.7647ZM6.99036 9.72658H11.2345V11.5247H6.99036V9.72658ZM9.4469 6.72137C9.4536 6.59767 9.49958 6.45122 9.51711 6.39942C9.54327 6.40021 9.58596 6.40285 9.6141 6.40931C9.75645 6.44206 9.90576 6.51878 10.055 6.62025C10.5258 6.94039 10.988 7.5058 11.1528 8.15213C10.9504 8.12388 10.7263 8.0791 10.5037 8.00863C9.96797 7.8391 9.40421 7.50457 9.4469 6.72137ZM14.3483 6.40931C14.3764 6.40285 14.4191 6.40021 14.4452 6.39942C14.4628 6.45122 14.5087 6.59767 14.5155 6.72137C14.5582 7.50457 13.9944 7.8391 13.4587 8.00863C13.236 8.0791 13.012 8.12388 12.8096 8.15213C12.9744 7.5058 13.4366 6.94039 13.9073 6.62025C14.0566 6.51878 14.2059 6.44206 14.3483 6.40931Z" fill="url(#paint0_linear_20806_15111)"/>
<defs>
<linearGradient id="paint0_linear_20806_15111" x1="6.60207" y1="-9.19187" x2="31.3399" y2="20.0966" gradientUnits="userSpaceOnUse">
<stop stop-color="#399ED7"/>
<stop offset="0.357382" stop-color="#BEE1FF"/>
<stop offset="0.499698" stop-color="#DEF0FF"/>
<stop offset="0.654511" stop-color="#BEE1FF"/>
<stop offset="1" stop-color="#399ED7"/>
</linearGradient>
</defs>
</svg>
