<svg xmlns="http://www.w3.org/2000/svg" width="20" height="20" viewBox="0 0 20 20" fill="none">
<path fill-rule="evenodd" clip-rule="evenodd" d="M4.35585 3.93984C4.60897 3.68672 5.01936 3.68672 5.27247 3.93984L9.99935 8.66671L14.7262 3.93984C14.9793 3.68672 15.3897 3.68672 15.6428 3.93984C15.896 4.19296 15.896 4.60334 15.6428 4.85646L10.916 9.58333L15.6428 14.3102C15.896 14.5633 15.896 14.9737 15.6428 15.2268C15.3897 15.4799 14.9793 15.4799 14.7262 15.2268L9.99935 10.5L5.27247 15.2268C5.01936 15.4799 4.60897 15.4799 4.35585 15.2268C4.10274 14.9737 4.10274 14.5633 4.35585 14.3102L9.08273 9.58333L4.35585 4.85646C4.10274 4.60334 4.10274 4.19296 4.35585 3.93984Z" fill="white"/>
</svg>
